<svg id="sheep" height="512" viewBox="0 0 512 512" width="512" xmlns="http://www.w3.org/2000/svg"><path id="_x34_" d="m319.38 154.056s10-35 50-50c0 0-20 0-30-15 0 0 35-25 70 0 .586.418 7.004-2.145 7.777-2.32 42.297-9.578 64.094 32.309 82.203 62.172 6.566 10.82 3.398 19.969-11.219 20.73-19.191.992-37.922-14.266-54.602 2.156-6.793 6.691-7.73 15.508-9.277 24.469-5.652 32.723-22.996 61.68-39.934 89.68-5.238 8.668-10.578 17.254-16.141 25.723-3.031 4.613-6.117 9.199-9.242 13.75-2.133 3.094-9.227 10.078-9.566 13.641 0 0-5 50 20 85h-25s-15-25-15-80h-10s-5 15-5 45 15 45 15 45h-25s-15-20-15-45 5-50 5-50-15-5-15-25c-.105 6.703-77.128 3.969-83.242 3.242-19.18-2.254-37.996-15.133-57.746-11.578-22.789 4.09-31.492 30.281-26.195 50.07 6.5 24.293 17.086 48.141 32.184 68.266h-25s-25-40-30-75c0 0-15 0-15 15s5 50 20 70h-25s-20-35-20-75c0-2.07-5.453-7.633-6.543-9.391-3.965-6.391-7.367-13.02-10.082-20.039-8.184-21.164-8.375-43.23-8.375-65.57 0 0-15-5-15-20 0-20.656 15.324-44.633 28.191-59.867 27.633-32.715 70.246-45.133 111.809-45.133 0 0 105 0 140 15h30z" fill="rgb(0,0,0)"/></svg>